<?xml version="1.0" encoding="UTF-8"?>
<!DOCTYPE svg PUBLIC "-//W3C//DTD SVG 1.1//EN" "http://www.w3.org/Graphics/SVG/1.1/DTD/svg11.dtd">
<svg xmlns="http://www.w3.org/2000/svg" version="1.1" width="280px" height="280px" style="shape-rendering:geometricPrecision; text-rendering:geometricPrecision; image-rendering:optimizeQuality; fill-rule:evenodd; clip-rule:evenodd" xmlns:xlink="http://www.w3.org/1999/xlink">
<g><path style="opacity:0.998" fill="#fad500" d="M 122.5,-0.5 C 133.833,-0.5 145.167,-0.5 156.5,-0.5C 211.207,8.36507 249.373,38.3651 271,89.5C 274.648,100.427 277.481,111.427 279.5,122.5C 279.5,133.833 279.5,145.167 279.5,156.5C 270.727,211.272 240.727,249.272 189.5,270.5C 187.302,215.34 185.468,160.007 184,104.5C 181.248,89.9895 173.748,78.6562 161.5,70.5C 160.602,63.5732 158.768,56.9066 156,50.5C 152.961,46.7273 149.127,44.0606 144.5,42.5C 142.589,42.5743 141.422,43.5743 141,45.5C 140.501,49.8206 140.334,54.1539 140.5,58.5C 136.832,52.5122 131.499,48.8455 124.5,47.5C 123.351,47.7911 122.684,48.6244 122.5,50C 123.468,55.0971 125.135,59.9305 127.5,64.5C 118.782,66.3508 110.782,69.8508 103.5,75C 98,81.8333 92.5,88.6667 87,95.5C 83.965,98.8702 80.6317,101.87 77,104.5C 76.6014,118.864 83.1014,128.698 96.5,134C 101.155,134.499 105.821,134.666 110.5,134.5C 110.5,181.833 110.5,229.167 110.5,276.5C 73.0507,268.696 43.5507,249.03 22,217.5C 10.214,198.632 2.71403,178.298 -0.5,156.5C -0.5,145.167 -0.5,133.833 -0.5,122.5C 8.36507,67.7933 38.3651,29.6266 89.5,8C 100.427,4.35241 111.427,1.51907 122.5,-0.5 Z"/></g>
<g><path style="opacity:1" fill="#dbdad5" d="M 144.5,42.5 C 145.53,48.4632 145.697,54.4632 145,60.5C 144.71,62.0441 144.044,63.3774 143,64.5C 141.337,62.8421 140.504,60.8421 140.5,58.5C 140.334,54.1539 140.501,49.8206 141,45.5C 141.422,43.5743 142.589,42.5743 144.5,42.5 Z"/></g>
<g><path style="opacity:0.999" fill="#fefefe" d="M 144.5,42.5 C 149.127,44.0606 152.961,46.7273 156,50.5C 158.768,56.9066 160.602,63.5732 161.5,70.5C 173.748,78.6562 181.248,89.9895 184,104.5C 185.468,160.007 187.302,215.34 189.5,270.5C 178.783,274.596 167.783,277.596 156.5,279.5C 145.167,279.5 133.833,279.5 122.5,279.5C 118.5,278.5 114.5,277.5 110.5,276.5C 110.5,229.167 110.5,181.833 110.5,134.5C 105.821,134.666 101.155,134.499 96.5,134C 83.1014,128.698 76.6014,118.864 77,104.5C 80.6317,101.87 83.965,98.8702 87,95.5C 92.5,88.6667 98,81.8333 103.5,75C 110.782,69.8508 118.782,66.3508 127.5,64.5C 128.117,64.3893 128.617,64.056 129,63.5C 130.124,57.419 128.624,52.0856 124.5,47.5C 131.499,48.8455 136.832,52.5122 140.5,58.5C 140.504,60.8421 141.337,62.8421 143,64.5C 144.044,63.3774 144.71,62.0441 145,60.5C 145.697,54.4632 145.53,48.4632 144.5,42.5 Z"/></g>
<g><path style="opacity:1" fill="#dad9d5" d="M 124.5,47.5 C 128.624,52.0856 130.124,57.419 129,63.5C 128.617,64.056 128.117,64.3893 127.5,64.5C 125.135,59.9305 123.468,55.0971 122.5,50C 122.684,48.6244 123.351,47.7911 124.5,47.5 Z"/></g>
<g><path style="opacity:1" fill="#dcdcdc" d="M 114.5,92.5 C 117.898,92.1796 121.232,92.513 124.5,93.5C 123.872,95.2581 122.872,96.7581 121.5,98C 118.183,98.4983 114.85,98.665 111.5,98.5C 111.615,96.0532 112.615,94.0532 114.5,92.5 Z"/></g>
</svg>
