<?xml version="1.0" encoding="UTF-8"?>
<!DOCTYPE svg PUBLIC "-//W3C//DTD SVG 1.1//EN" "http://www.w3.org/Graphics/SVG/1.1/DTD/svg11.dtd">
<svg xmlns="http://www.w3.org/2000/svg" version="1.1" width="820px" height="820px" style="shape-rendering:geometricPrecision; text-rendering:geometricPrecision; image-rendering:optimizeQuality; fill-rule:evenodd; clip-rule:evenodd" xmlns:xlink="http://www.w3.org/1999/xlink">
<g><path style="opacity:0.992" fill="#e7e8ec" d="M 407.5,67.5 C 411.316,68.4006 414.983,69.9006 418.5,72C 513.704,127.366 609.037,182.533 704.5,237.5C 705.833,352.167 705.833,466.833 704.5,581.5C 606.293,638.435 507.959,695.102 409.5,751.5C 311.041,695.102 212.707,638.435 114.5,581.5C 113.167,466.833 113.167,352.167 114.5,237.5C 212.393,181.059 310.06,124.392 407.5,67.5 Z M 670.5,380.5 C 659.206,363.163 645.872,347.33 630.5,333C 605.014,314.06 578.681,312.726 551.5,329C 542.684,337.156 535.184,346.323 529,356.5C 519.922,374.989 510.589,393.323 501,411.5C 495.774,419.968 489.608,427.635 482.5,434.5C 471.584,408.597 459.417,383.263 446,358.5C 439.97,348.797 432.803,339.964 424.5,332C 405.92,319.051 387.586,319.384 369.5,333C 353.512,350.459 341.178,370.293 332.5,392.5C 327.693,390.118 322.693,388.118 317.5,386.5C 306.782,362.214 292.449,340.38 274.5,321C 249.33,300.117 223.33,299.117 196.5,318C 183.821,330.51 173.988,345.01 167,361.5C 160.512,377.147 154.345,392.814 148.5,408.5C 148.333,358.832 148.5,309.166 149,259.5C 236,209.167 323,158.833 410,108.5C 496.503,159.086 583.17,209.419 670,259.5C 670.5,299.832 670.667,340.165 670.5,380.5 Z"/></g>
<g><path style="opacity:0.798" fill="#fd6184" d="M 317.5,386.5 C 305.855,384.441 294.855,386.274 284.5,392C 270.859,400.631 258.692,411.131 248,423.5C 212.406,466.981 182.572,514.315 158.5,565.5C 155.242,564.092 152.076,562.426 149,560.5C 148.5,509.834 148.333,459.168 148.5,408.5C 154.345,392.814 160.512,377.147 167,361.5C 173.988,345.01 183.821,330.51 196.5,318C 223.33,299.117 249.33,300.117 274.5,321C 292.449,340.38 306.782,362.214 317.5,386.5 Z"/></g>
<g><path style="opacity:0.995" fill="#fecd56" d="M 670.5,380.5 C 670.5,384.167 670.5,387.833 670.5,391.5C 642.863,369.28 612.196,364.113 578.5,376C 556.381,384.11 538.215,397.61 524,416.5C 508.329,439.833 493.663,463.833 480,488.5C 469.866,504.632 457.033,518.132 441.5,529C 430.667,535.955 419,538.289 406.5,536C 397.328,531.994 389.495,526.161 383,518.5C 371.235,502.652 361.235,485.652 353,467.5C 341.061,440.505 329.228,413.505 317.5,386.5C 322.693,388.118 327.693,390.118 332.5,392.5C 349.935,406.759 367.269,421.259 384.5,436C 411.993,454.953 440.993,457.62 471.5,444C 476.021,441.634 479.687,438.467 482.5,434.5C 489.608,427.635 495.774,419.968 501,411.5C 510.589,393.323 519.922,374.989 529,356.5C 535.184,346.323 542.684,337.156 551.5,329C 578.681,312.726 605.014,314.06 630.5,333C 645.872,347.33 659.206,363.163 670.5,380.5 Z"/></g>
<g><path style="opacity:0.994" fill="#36a2ea" d="M 482.5,434.5 C 479.687,438.467 476.021,441.634 471.5,444C 440.993,457.62 411.993,454.953 384.5,436C 367.269,421.259 349.935,406.759 332.5,392.5C 341.178,370.293 353.512,350.459 369.5,333C 387.586,319.384 405.92,319.051 424.5,332C 432.803,339.964 439.97,348.797 446,358.5C 459.417,383.263 471.584,408.597 482.5,434.5 Z"/></g>
<g><path style="opacity:1" fill="#fd777b" d="M 670.5,391.5 C 670.667,447.834 670.5,504.168 670,560.5C 583.915,610.46 497.748,660.293 411.5,710C 410.167,710.667 408.833,710.667 407.5,710C 324.437,661.807 241.437,613.64 158.5,565.5C 182.572,514.315 212.406,466.981 248,423.5C 258.692,411.131 270.859,400.631 284.5,392C 294.855,386.274 305.855,384.441 317.5,386.5C 329.228,413.505 341.061,440.505 353,467.5C 361.235,485.652 371.235,502.652 383,518.5C 389.495,526.161 397.328,531.994 406.5,536C 419,538.289 430.667,535.955 441.5,529C 457.033,518.132 469.866,504.632 480,488.5C 493.663,463.833 508.329,439.833 524,416.5C 538.215,397.61 556.381,384.11 578.5,376C 612.196,364.113 642.863,369.28 670.5,391.5 Z"/></g>
</svg>
