<?xml version="1.0" encoding="UTF-8"?>
<!DOCTYPE svg PUBLIC "-//W3C//DTD SVG 1.1//EN" "http://www.w3.org/Graphics/SVG/1.1/DTD/svg11.dtd">
<svg xmlns="http://www.w3.org/2000/svg" version="1.1" width="788px" height="825px" style="shape-rendering:geometricPrecision; text-rendering:geometricPrecision; image-rendering:optimizeQuality; fill-rule:evenodd; clip-rule:evenodd" xmlns:xlink="http://www.w3.org/1999/xlink">
<g><path style="opacity:0.997" fill="#0a23a9" d="M -0.5,233.5 C -0.5,213.5 -0.5,193.5 -0.5,173.5C 15.592,97.2342 60.9253,47.4009 135.5,24C 213.683,7.17108 278.516,29.0044 330,89.5C 370.545,145.455 379.211,206.121 356,271.5C 331.753,328.412 289.919,365.578 230.5,383C 156.973,399.489 94.4728,380.322 43,325.5C 20.5425,298.643 6.0425,267.977 -0.5,233.5 Z"/></g>
<g><path style="opacity:0.991" fill="#0a23a9" d="M 582.5,19.5 C 647.739,13.5378 701.906,35.2045 745,84.5C 769.707,115.245 783.873,150.245 787.5,189.5C 787.5,195.5 787.5,201.5 787.5,207.5C 786.834,203.979 786.167,200.313 785.5,196.5C 720.684,138.185 656.017,79.6849 591.5,21C 588.649,19.7114 585.649,19.2114 582.5,19.5 Z"/></g>
<g><path style="opacity:0.999" fill="#0b29ab" d="M 582.5,19.5 C 585.649,19.2114 588.649,19.7114 591.5,21C 656.017,79.6849 720.684,138.185 785.5,196.5C 786.167,200.313 786.834,203.979 787.5,207.5C 787.5,214.5 787.5,221.5 787.5,228.5C 786.766,227.122 786.099,225.622 785.5,224C 711.667,157.5 637.833,91 564,24.5C 563.536,23.9056 563.369,23.2389 563.5,22.5C 569.556,20.5473 575.889,19.5473 582.5,19.5 Z"/></g>
<g><path style="opacity:1" fill="#0b2ead" d="M 563.5,22.5 C 563.369,23.2389 563.536,23.9056 564,24.5C 637.833,91 711.667,157.5 785.5,224C 786.099,225.622 786.766,227.122 787.5,228.5C 787.5,228.833 787.5,229.167 787.5,229.5C 786.665,236.52 785.665,243.52 784.5,250.5C 781.42,246.916 778.087,243.416 774.5,240C 702.201,175.37 630.201,110.37 558.5,45C 552.564,39.219 546.23,34.0523 539.5,29.5C 547.057,25.9846 555.057,23.6513 563.5,22.5 Z"/></g>
<g><path style="opacity:1" fill="#0b34af" d="M 539.5,29.5 C 546.23,34.0523 552.564,39.219 558.5,45C 630.201,110.37 702.201,175.37 774.5,240C 778.087,243.416 781.42,246.916 784.5,250.5C 783.786,261.112 782.12,271.446 779.5,281.5C 692.695,202.866 605.695,124.366 518.5,46C 516.184,44.2932 514.851,42.4599 514.5,40.5C 522.189,35.4917 530.522,31.825 539.5,29.5 Z"/></g>
<g><path style="opacity:0.999" fill="#0b3ab2" d="M 514.5,40.5 C 514.851,42.4599 516.184,44.2932 518.5,46C 605.695,124.366 692.695,202.866 779.5,281.5C 778.307,289.27 776.641,296.937 774.5,304.5C 681.406,221.577 588.739,138.077 496.5,54C 495.231,54.1085 494.231,53.9418 493.5,53.5C 499.989,48.4181 506.989,44.0847 514.5,40.5 Z"/></g>
<g><path style="opacity:1" fill="#0b41b4" d="M 493.5,53.5 C 494.231,53.9418 495.231,54.1085 496.5,54C 588.739,138.077 681.406,221.577 774.5,304.5C 772.14,313.276 769.473,321.943 766.5,330.5C 760.143,323.795 753.477,317.295 746.5,311C 656.006,230.338 566.006,149.171 476.5,67.5C 481.56,62.1079 487.226,57.4413 493.5,53.5 Z"/></g>
<g><path style="opacity:1" fill="#0b47b7" d="M 476.5,67.5 C 566.006,149.171 656.006,230.338 746.5,311C 753.477,317.295 760.143,323.795 766.5,330.5C 763.929,339.228 760.596,347.561 756.5,355.5C 755.118,352.606 753.118,350.106 750.5,348C 653.049,260.951 556.049,173.451 459.5,85.5C 464.463,78.8695 470.13,72.8695 476.5,67.5 Z"/></g>
<g><path style="opacity:0.999" fill="#0a4eb9" d="M 459.5,85.5 C 556.049,173.451 653.049,260.951 750.5,348C 753.118,350.106 755.118,352.606 756.5,355.5C 753.773,362.62 750.773,369.62 747.5,376.5C 647.224,286.73 547.057,196.73 447,106.5C 446.517,105.552 446.351,104.552 446.5,103.5C 449.856,96.7846 454.19,90.7846 459.5,85.5 Z"/></g>
<g><path style="opacity:1" fill="#0a54bc" d="M 446.5,103.5 C 446.351,104.552 446.517,105.552 447,106.5C 547.057,196.73 647.224,286.73 747.5,376.5C 743.404,384.364 739.071,392.031 734.5,399.5C 731.645,397.916 728.645,395.749 725.5,393C 627.612,304.606 529.946,216.106 432.5,127.5C 436.172,118.808 440.839,110.808 446.5,103.5 Z"/></g>
<g><path style="opacity:1" fill="#0a5bbe" d="M 432.5,127.5 C 529.946,216.106 627.612,304.606 725.5,393C 728.645,395.749 731.645,397.916 734.5,399.5C 731,406.506 727,413.173 722.5,419.5C 623.862,330.366 525.028,241.366 426,152.5C 425.768,151.263 425.268,150.263 424.5,149.5C 426.613,141.946 429.279,134.613 432.5,127.5 Z"/></g>
<g><path style="opacity:1" fill="#0a60c1" d="M 424.5,149.5 C 425.268,150.263 425.768,151.263 426,152.5C 525.028,241.366 623.862,330.366 722.5,419.5C 718.554,426.405 713.887,432.738 708.5,438.5C 708.489,436.983 707.823,435.816 706.5,435C 610.625,348.584 514.625,262.418 418.5,176.5C 419.717,167.302 421.717,158.302 424.5,149.5 Z"/></g>
<g><path style="opacity:0.999" fill="#0a67c3" d="M 418.5,176.5 C 514.625,262.418 610.625,348.584 706.5,435C 707.823,435.816 708.489,436.983 708.5,438.5C 704.22,445.387 699.22,451.721 693.5,457.5C 690.397,455.577 687.397,453.41 684.5,451C 595.296,370.293 505.963,289.793 416.5,209.5C 416.218,198.426 416.884,187.426 418.5,176.5 Z"/></g>
<g><path style="opacity:1" fill="#0a6dc6" d="M 416.5,209.5 C 505.963,289.793 595.296,370.293 684.5,451C 687.397,453.41 690.397,455.577 693.5,457.5C 689.845,462.486 685.845,467.153 681.5,471.5C 679.068,470.25 676.734,468.75 674.5,467C 588.261,388.256 501.595,310.09 414.5,232.5C 415.268,224.846 415.935,217.18 416.5,209.5 Z"/></g>
<g><path style="opacity:1" fill="#0a73c8" d="M 414.5,232.5 C 501.595,310.09 588.261,388.256 674.5,467C 676.734,468.75 679.068,470.25 681.5,471.5C 675.833,477.833 669.833,483.833 663.5,489.5C 578.535,413.87 493.868,337.87 409.5,261.5C 411.295,251.858 412.962,242.191 414.5,232.5 Z"/></g>
<g><path style="opacity:0.999" fill="#0a79ca" d="M 409.5,261.5 C 493.868,337.87 578.535,413.87 663.5,489.5C 658.488,494.51 653.155,499.177 647.5,503.5C 646.153,504.028 644.819,504.195 643.5,504C 562.53,431.041 481.863,357.874 401.5,284.5C 404.192,276.753 406.859,269.086 409.5,261.5 Z"/></g>
<g><path style="opacity:0.998" fill="#0a80cd" d="M 401.5,284.5 C 481.863,357.874 562.53,431.041 643.5,504C 644.819,504.195 646.153,504.028 647.5,503.5C 640.574,509.968 633.24,515.968 625.5,521.5C 548.695,451.532 471.695,381.699 394.5,312C 393.255,311.209 391.922,310.709 390.5,310.5C 394.557,301.997 398.223,293.33 401.5,284.5 Z"/></g>
<g><path style="opacity:0.999" fill="#0a86cf" d="M 390.5,310.5 C 391.922,310.709 393.255,311.209 394.5,312C 471.695,381.699 548.695,451.532 625.5,521.5C 620.552,525.648 615.218,529.314 609.5,532.5C 534.336,464.171 459.003,396.004 383.5,328C 382.552,327.517 381.552,327.351 380.5,327.5C 383.596,321.633 386.929,315.967 390.5,310.5 Z"/></g>
<g><path style="opacity:1" fill="#0a8cd1" d="M 380.5,327.5 C 381.552,327.351 382.552,327.517 383.5,328C 459.003,396.004 534.336,464.171 609.5,532.5C 602.341,537.917 594.675,542.583 586.5,546.5C 512.882,480.555 439.216,414.555 365.5,348.5C 370.758,341.638 375.758,334.638 380.5,327.5 Z"/></g>
<g><path style="opacity:1" fill="#0a93d4" d="M 365.5,348.5 C 439.216,414.555 512.882,480.555 586.5,546.5C 583.869,548.153 581.203,549.819 578.5,551.5C 573.833,553.5 569.167,555.5 564.5,557.5C 493.825,492.826 422.825,428.492 351.5,364.5C 356.177,359.126 360.843,353.793 365.5,348.5 Z"/></g>
<g><path style="opacity:1" fill="#0a99d6" d="M 351.5,364.5 C 422.825,428.492 493.825,492.826 564.5,557.5C 556.165,562.064 547.499,566.064 538.5,569.5C 469.808,507.138 401.141,444.805 332.5,382.5C 338.807,376.528 345.14,370.528 351.5,364.5 Z"/></g>
<g><path style="opacity:1" fill="#0a9fd9" d="M 332.5,382.5 C 401.141,444.805 469.808,507.138 538.5,569.5C 532.128,572.624 525.461,574.958 518.5,576.5C 451.695,515.866 384.695,455.366 317.5,395C 318.056,394.617 318.389,394.117 318.5,393.5C 323.128,389.844 327.794,386.178 332.5,382.5 Z"/></g>
<g><path style="opacity:0.999" fill="#0aa5db" d="M 318.5,393.5 C 318.389,394.117 318.056,394.617 317.5,395C 384.695,455.366 451.695,515.866 518.5,576.5C 510.508,579.941 502.175,582.607 493.5,584.5C 493.586,583.504 493.252,582.671 492.5,582C 427.305,523.634 362.305,465.134 297.5,406.5C 304.324,401.919 311.324,397.586 318.5,393.5 Z"/></g>
<g><path style="opacity:0.998" fill="#09d1ec" d="M 110.5,425.5 C 110.389,426.117 110.056,426.617 109.5,427C 165.5,477.667 221.5,528.333 277.5,579C 276.906,579.464 276.239,579.631 275.5,579.5C 255.574,573.973 236.574,566.306 218.5,556.5C 166.505,508.375 113.672,460.375 60,412.5C 59.6012,412.728 59.4346,413.062 59.5,413.5C 54.4246,407.645 50.7579,401.311 48.5,394.5C 67.7989,407.483 88.4656,417.816 110.5,425.5 Z"/></g>
<g><path style="opacity:1" fill="#09abdd" d="M 297.5,406.5 C 362.305,465.134 427.305,523.634 492.5,582C 493.252,582.671 493.586,583.504 493.5,584.5C 483.58,587.085 473.58,589.418 463.5,591.5C 400.063,534.569 336.73,477.402 273.5,420C 274.252,419.329 274.586,418.496 274.5,417.5C 282.293,414.104 289.959,410.437 297.5,406.5 Z"/></g>
<g><path style="opacity:0.991" fill="#09d5ed" d="M 218.5,556.5 C 214.71,555.105 211.043,553.438 207.5,551.5C 145.664,519 96.3304,473 59.5,413.5C 59.4346,413.062 59.6012,412.728 60,412.5C 113.672,460.375 166.505,508.375 218.5,556.5 Z"/></g>
<g><path style="opacity:1" fill="#09b2e0" d="M 274.5,417.5 C 274.586,418.496 274.252,419.329 273.5,420C 336.73,477.402 400.063,534.569 463.5,591.5C 453.913,593.376 444.246,594.709 434.5,595.5C 374.028,540.532 313.362,485.699 252.5,431C 250.859,429.871 249.859,428.371 249.5,426.5C 258.055,424.093 266.388,421.093 274.5,417.5 Z"/></g>
<g><path style="opacity:0.999" fill="#09cae9" d="M 110.5,425.5 C 125.896,430.113 141.563,433.446 157.5,435.5C 215.27,487.431 272.937,539.598 330.5,592C 330.272,592.399 329.938,592.565 329.5,592.5C 310.944,590.027 292.944,585.693 275.5,579.5C 276.239,579.631 276.906,579.464 277.5,579C 221.5,528.333 165.5,477.667 109.5,427C 110.056,426.617 110.389,426.117 110.5,425.5 Z"/></g>
<g><path style="opacity:1" fill="#09b8e2" d="M 249.5,426.5 C 249.859,428.371 250.859,429.871 252.5,431C 313.362,485.699 374.028,540.532 434.5,595.5C 424.198,596.52 413.864,597.187 403.5,597.5C 343.132,542.463 282.465,487.797 221.5,433.5C 230.985,431.795 240.318,429.462 249.5,426.5 Z"/></g>
<g><path style="opacity:0.999" fill="#09bee5" d="M 221.5,433.5 C 282.465,487.797 343.132,542.463 403.5,597.5C 389.99,597.829 376.656,597.496 363.5,596.5C 305.661,543.163 247.328,490.329 188.5,438C 189.416,437.722 190.082,437.222 190.5,436.5C 200.883,435.962 211.216,434.962 221.5,433.5 Z"/></g>
<g><path style="opacity:1" fill="#09c3e7" d="M 157.5,435.5 C 168.482,436.286 179.482,436.619 190.5,436.5C 190.082,437.222 189.416,437.722 188.5,438C 247.328,490.329 305.661,543.163 363.5,596.5C 351.902,596.249 340.568,594.916 329.5,592.5C 329.938,592.565 330.272,592.399 330.5,592C 272.937,539.598 215.27,487.431 157.5,435.5 Z"/></g>
<g><path style="opacity:0.997" fill="#0b23a9" d="M 207.5,551.5 C 211.043,553.438 214.71,555.105 218.5,556.5C 236.574,566.306 255.574,573.973 275.5,579.5C 292.944,585.693 310.944,590.027 329.5,592.5C 340.568,594.916 351.902,596.249 363.5,596.5C 376.656,597.496 389.99,597.829 403.5,597.5C 413.864,597.187 424.198,596.52 434.5,595.5C 444.246,594.709 453.913,593.376 463.5,591.5C 473.58,589.418 483.58,587.085 493.5,584.5C 502.175,582.607 510.508,579.941 518.5,576.5C 525.461,574.958 532.128,572.624 538.5,569.5C 547.499,566.064 556.165,562.064 564.5,557.5C 569.167,555.5 573.833,553.5 578.5,551.5C 578.667,583.835 578.5,616.168 578,648.5C 571.718,716.938 538.885,768.105 479.5,802C 421.819,830.665 364.152,830.665 306.5,802C 248.547,768.99 215.714,719.156 208,652.5C 207.5,618.835 207.333,585.168 207.5,551.5 Z"/></g>
</svg>
